<?xml version="1.0" encoding="iso-8859-1"?>
<!-- Generator: Adobe Illustrator 19.0.0, SVG Export Plug-In . SVG Version: 6.00 Build 0)  -->
<svg version="1.1" id="Layer_1" xmlns="http://www.w3.org/2000/svg" xmlns:xlink="http://www.w3.org/1999/xlink" x="0px" y="0px"
	 viewBox="0 0 300.95 300.95" style="enable-background:new 0 0 300.95 300.95;" xml:space="preserve">
<g>
	<g>
		<g>
			<path d="M296.075,0c-2.665,0-4.875,2.21-4.875,4.875V21.19c-10.465,1.235-96.525,11.18-140.725,11.18
				c-43.225,0-127.14-9.49-140.725-11.05V4.875C9.75,2.21,7.54,0,4.875,0C2.21,0,0,2.21,0,4.875v291.2
				c0,2.665,2.21,4.875,4.875,4.875c2.665,0,4.875-2.21,4.875-4.875V133.64c15.99,0.91,97.955,5.525,140.725,5.525
				c43.55,0,127.01-4.745,140.725-5.525v162.435c0,2.665,2.21,4.875,4.875,4.875c2.665,0,4.875-2.21,4.875-4.875V4.875
				C300.95,2.21,298.74,0,296.075,0z M291.2,123.825c-11.7,0.715-96.785,5.59-140.725,5.59c-43.095,0-126.295-4.68-140.725-5.525
				V31.07c16.64,1.885,98.02,10.985,140.725,10.985c43.42,0,126.165-9.425,140.725-11.115V123.825z"/>
			<path d="M58.24,53.95H37.18c-2.665,0-4.875,2.21-4.875,4.875v54.21c0,2.665,2.21,4.875,4.875,4.875
				c2.665,0,4.875-2.21,4.875-4.875v-21.84h5.655c2.665,0,4.875-2.21,4.875-4.875s-2.21-4.875-4.875-4.875h-5.655V63.7H58.24
				c2.665,0,4.875-2.21,4.875-4.875S60.97,53.95,58.24,53.95z"/>
			<path d="M134.29,53.95c-2.665,0-4.875,2.21-4.875,4.875v36.53l-23.27-39c-1.105-1.885-3.315-2.795-5.46-2.21
				c-2.08,0.585-3.575,2.47-3.575,4.68v54.145c0,2.665,2.21,4.875,4.875,4.875s4.875-2.21,4.875-4.875V76.44l23.27,39
				c0.845,1.56,2.47,2.405,4.16,2.405c0.455,0,0.845,0,1.3-0.13c2.08-0.585,3.575-2.47,3.575-4.68v-54.21
				C139.165,56.16,136.955,53.95,134.29,53.95z"/>
			<path d="M150.475,112.97c0,2.665,2.21,4.875,4.875,4.875s4.875-2.145,4.875-4.81v-54.21c0-2.665-2.21-4.875-4.875-4.875
				s-4.875,2.21-4.875,4.875V112.97z"/>
			<path d="M231.335,117.91c2.665,0,4.875-2.21,4.875-4.875v-21.84h22.62v21.84c0,2.665,2.21,4.875,4.875,4.875
				c2.665,0,4.875-2.21,4.875-4.875v-54.21c0-2.73-2.145-4.875-4.875-4.875c-2.665,0-4.875,2.21-4.875,4.875v22.62h-22.62v-22.62
				c0-2.665-2.21-4.875-4.875-4.875c-2.665,0-4.875,2.21-4.875,4.875v54.21C226.46,115.7,228.67,117.91,231.335,117.91z"/>
			<path d="M80.08,53.95c-2.665,0-4.875,2.21-4.875,4.875v54.145c0,2.665,2.21,4.875,4.875,4.875c2.73,0,4.875-2.145,4.875-4.81
				v-54.21C84.955,56.16,82.745,53.95,80.08,53.95z"/>
			<path d="M190.515,90.805h0.78c4.615,0,8.775,4.16,8.905,7.54c0.26,5.915-3.38,9.035-7.15,9.555c-4.745,0.65-8.97-1.95-10.01-6.11
				c-0.65-2.665-3.315-4.225-5.915-3.575c-2.665,0.65-4.225,3.315-3.575,5.915c2.015,8.19,9.36,13.585,17.94,13.585
				c0.975,0,1.95-0.065,2.795-0.195c8.19-1.17,16.12-8.255,15.6-19.695c-0.39-8.97-9.1-16.835-18.655-16.835h-0.78
				c-4.03,0-8.125-3.64-8.125-7.28c0-0.13,0-0.325,0-0.52c-0.52-4.615,2.535-8.515,7.28-9.23c3.9-0.65,8.58,0.65,9.945,6.11
				c0.65,2.6,3.315,4.16,5.915,3.51c2.6-0.65,4.16-3.315,3.51-5.915c-2.34-9.36-10.985-14.885-20.865-13.325
				c-9.815,1.495-16.445,9.945-15.47,19.695C172.835,82.875,181.285,90.805,190.515,90.805z"/>
		</g>
	</g>
</g>
<g>
</g>
<g>
</g>
<g>
</g>
<g>
</g>
<g>
</g>
<g>
</g>
<g>
</g>
<g>
</g>
<g>
</g>
<g>
</g>
<g>
</g>
<g>
</g>
<g>
</g>
<g>
</g>
<g>
</g>
</svg>
